<?xml version="1.0" standalone="no"?>
<!DOCTYPE svg PUBLIC "-//W3C//DTD SVG 1.1//EN" "http://www.w3.org/Graphics/SVG/1.1/DTD/svg11.dtd">
<svg version="1.1" width="800" height="2134" onload="init(evt)" viewBox="0 0 800 2134" xmlns="http://www.w3.org/2000/svg" xmlns:xlink="http://www.w3.org/1999/xlink">
<!-- Flame graph stack visualization. See https://github.com/brendangregg/FlameGraph for latest version, and http://www.brendangregg.com/flamegraphs.html for examples. -->
<!-- NOTES:  -->
<defs>
	<linearGradient id="background" y1="0" y2="1" x1="0" x2="0" >
		<stop stop-color="#8f8880" offset="5%" />
		<stop stop-color="#8f8880" offset="95%" />
	</linearGradient>
</defs>
<style type="text/css">
	text { font-family:Verdana; font-size:12px; fill:rgb(0,0,0); }
	#search, #ignorecase { opacity:0.1; cursor:pointer; }
	#search:hover, #search.show, #ignorecase:hover, #ignorecase.show { opacity:1; }
	#subtitle { text-anchor:middle; font-color:rgb(160,160,160); }
	#title { text-anchor:middle; font-size:17px}
	#unzoom { cursor:pointer; }
	#frames > *:hover { stroke:black; stroke-width:0.5; cursor:pointer; }
	.hide { display:none; }
	.parent { opacity:0.5; }
</style>
<script type="text/ecmascript">
<![CDATA[
	"use strict";
	var details, searchbtn, unzoombtn, matchedtxt, svg, searching, currentSearchTerm, ignorecase, ignorecaseBtn;
	function init(evt) {
		details = document.getElementById("details").firstChild;
		searchbtn = document.getElementById("search");
		ignorecaseBtn = document.getElementById("ignorecase");
		unzoombtn = document.getElementById("unzoom");
		matchedtxt = document.getElementById("matched");
		svg = document.getElementsByTagName("svg")[0];
		searching = 0;
		currentSearchTerm = null;
	}

	window.addEventListener("click", function(e) {
		var target = find_group(e.target);
		if (target) {
			if (target.nodeName == "a") {
				if (e.ctrlKey === false) return;
				e.preventDefault();
			}
			if (target.classList.contains("parent")) unzoom();
			zoom(target);
		}
		else if (e.target.id == "unzoom") unzoom();
		else if (e.target.id == "search") search_prompt();
		else if (e.target.id == "ignorecase") toggle_ignorecase();
	}, false)

	// mouse-over for info
	// show
	window.addEventListener("mouseover", function(e) {
		var target = find_group(e.target);
		if (target) details.nodeValue = "Function: " + g_to_text(target);
	}, false)

	// clear
	window.addEventListener("mouseout", function(e) {
		var target = find_group(e.target);
		if (target) details.nodeValue = ' ';
	}, false)

	// ctrl-F for search
	window.addEventListener("keydown",function (e) {
		if (e.keyCode === 114 || (e.ctrlKey && e.keyCode === 70)) {
			e.preventDefault();
			search_prompt();
		}
	}, false)

	// ctrl-I to toggle case-sensitive search
	window.addEventListener("keydown",function (e) {
		if (e.ctrlKey && e.keyCode === 73) {
			e.preventDefault();
			toggle_ignorecase();
		}
	}, false)

	// functions
	function find_child(node, selector) {
		var children = node.querySelectorAll(selector);
		if (children.length) return children[0];
		return;
	}
	function find_group(node) {
		var parent = node.parentElement;
		if (!parent) return;
		if (parent.id == "frames") return node;
		return find_group(parent);
	}
	function orig_save(e, attr, val) {
		if (e.attributes["_orig_" + attr] != undefined) return;
		if (e.attributes[attr] == undefined) return;
		if (val == undefined) val = e.attributes[attr].value;
		e.setAttribute("_orig_" + attr, val);
	}
	function orig_load(e, attr) {
		if (e.attributes["_orig_"+attr] == undefined) return;
		e.attributes[attr].value = e.attributes["_orig_" + attr].value;
		e.removeAttribute("_orig_"+attr);
	}
	function g_to_text(e) {
		var text = find_child(e, "title").firstChild.nodeValue;
		return (text)
	}
	function g_to_func(e) {
		var func = g_to_text(e);
		// if there's any manipulation we want to do to the function
		// name before it's searched, do it here before returning.
		return (func);
	}
	function update_text(e) {
		var r = find_child(e, "rect");
		var t = find_child(e, "text");
		var w = parseFloat(r.attributes.width.value) -3;
		var txt = find_child(e, "title").textContent.replace(/\([^(]*\)$/,"");
		t.attributes.x.value = parseFloat(r.attributes.x.value) + 3;

		// Smaller than this size won't fit anything
		if (w < 2 * 12 * 0.59) {
			t.textContent = "";
			return;
		}

		t.textContent = txt;
		// Fit in full text width
		if (/^ *$/.test(txt) || t.getSubStringLength(0, txt.length) < w)
			return;

		for (var x = txt.length - 2; x > 0; x--) {
			if (t.getSubStringLength(0, x + 2) <= w) {
				t.textContent = txt.substring(0, x) + "..";
				return;
			}
		}
		t.textContent = "";
	}

	// zoom
	function zoom_reset(e) {
		if (e.attributes != undefined) {
			orig_load(e, "x");
			orig_load(e, "width");
		}
		if (e.childNodes == undefined) return;
		for (var i = 0, c = e.childNodes; i < c.length; i++) {
			zoom_reset(c[i]);
		}
	}
	function zoom_child(e, x, ratio) {
		if (e.attributes != undefined) {
			if (e.attributes.x != undefined) {
				orig_save(e, "x");
				e.attributes.x.value = (parseFloat(e.attributes.x.value) - x - 10) * ratio + 10;
				if (e.tagName == "text")
					e.attributes.x.value = find_child(e.parentNode, "rect[x]").attributes.x.value + 3;
			}
			if (e.attributes.width != undefined) {
				orig_save(e, "width");
				e.attributes.width.value = parseFloat(e.attributes.width.value) * ratio;
			}
		}

		if (e.childNodes == undefined) return;
		for (var i = 0, c = e.childNodes; i < c.length; i++) {
			zoom_child(c[i], x - 10, ratio);
		}
	}
	function zoom_parent(e) {
		if (e.attributes) {
			if (e.attributes.x != undefined) {
				orig_save(e, "x");
				e.attributes.x.value = 10;
			}
			if (e.attributes.width != undefined) {
				orig_save(e, "width");
				e.attributes.width.value = parseInt(svg.width.baseVal.value) - (10 * 2);
			}
		}
		if (e.childNodes == undefined) return;
		for (var i = 0, c = e.childNodes; i < c.length; i++) {
			zoom_parent(c[i]);
		}
	}
	function zoom(node) {
		var attr = find_child(node, "rect").attributes;
		var width = parseFloat(attr.width.value);
		var xmin = parseFloat(attr.x.value);
		var xmax = parseFloat(xmin + width);
		var ymin = parseFloat(attr.y.value);
		var ratio = (svg.width.baseVal.value - 2 * 10) / width;

		// XXX: Workaround for JavaScript float issues (fix me)
		var fudge = 0.0001;

		unzoombtn.classList.remove("hide");

		var el = document.getElementById("frames").children;
		for (var i = 0; i < el.length; i++) {
			var e = el[i];
			var a = find_child(e, "rect").attributes;
			var ex = parseFloat(a.x.value);
			var ew = parseFloat(a.width.value);
			var upstack;
			// Is it an ancestor
			if (1 == 0) {
				upstack = parseFloat(a.y.value) > ymin;
			} else {
				upstack = parseFloat(a.y.value) < ymin;
			}
			if (upstack) {
				// Direct ancestor
				if (ex <= xmin && (ex+ew+fudge) >= xmax) {
					e.classList.add("parent");
					zoom_parent(e);
					update_text(e);
				}
				// not in current path
				else
					e.classList.add("hide");
			}
			// Children maybe
			else {
				// no common path
				if (ex < xmin || ex + fudge >= xmax) {
					e.classList.add("hide");
				}
				else {
					zoom_child(e, xmin, ratio);
					update_text(e);
				}
			}
		}
		search();
	}
	function unzoom() {
		unzoombtn.classList.add("hide");
		var el = document.getElementById("frames").children;
		for(var i = 0; i < el.length; i++) {
			el[i].classList.remove("parent");
			el[i].classList.remove("hide");
			zoom_reset(el[i]);
			update_text(el[i]);
		}
		search();
	}

	// search
	function toggle_ignorecase() {
		ignorecase = !ignorecase;
		if (ignorecase) {
			ignorecaseBtn.classList.add("show");
		} else {
			ignorecaseBtn.classList.remove("show");
		}
		reset_search();
		search();
	}
	function reset_search() {
		var el = document.querySelectorAll("#frames rect");
		for (var i = 0; i < el.length; i++) {
			orig_load(el[i], "fill")
		}
	}
	function search_prompt() {
		if (!searching) {
			var term = prompt("Enter a search term (regexp " +
			    "allowed, eg: ^ext4_)"
			    + (ignorecase ? ", ignoring case" : "")
			    + "\nPress Ctrl-i to toggle case sensitivity", "");
			if (term != null) {
				currentSearchTerm = term;
				search();
			}
		} else {
			reset_search();
			searching = 0;
			currentSearchTerm = null;
			searchbtn.classList.remove("show");
			searchbtn.firstChild.nodeValue = "Search"
			matchedtxt.classList.add("hide");
			matchedtxt.firstChild.nodeValue = ""
		}
	}
	function search(term) {
		if (currentSearchTerm === null) return;
		var term = currentSearchTerm;

		var re = new RegExp(term, ignorecase ? 'i' : '');
		var el = document.getElementById("frames").children;
		var matches = new Object();
		var maxwidth = 0;
		for (var i = 0; i < el.length; i++) {
			var e = el[i];
			var func = g_to_func(e);
			var rect = find_child(e, "rect");
			if (func == null || rect == null)
				continue;

			// Save max width. Only works as we have a root frame
			var w = parseFloat(rect.attributes.width.value);
			if (w > maxwidth)
				maxwidth = w;

			if (func.match(re)) {
				// highlight
				var x = parseFloat(rect.attributes.x.value);
				orig_save(rect, "fill");
				rect.attributes.fill.value = "rgb(230,0,230)";

				// remember matches
				if (matches[x] == undefined) {
					matches[x] = w;
				} else {
					if (w > matches[x]) {
						// overwrite with parent
						matches[x] = w;
					}
				}
				searching = 1;
			}
		}
		if (!searching)
			return;

		searchbtn.classList.add("show");
		searchbtn.firstChild.nodeValue = "Reset Search";

		// calculate percent matched, excluding vertical overlap
		var count = 0;
		var lastx = -1;
		var lastw = 0;
		var keys = Array();
		for (k in matches) {
			if (matches.hasOwnProperty(k))
				keys.push(k);
		}
		// sort the matched frames by their x location
		// ascending, then width descending
		keys.sort(function(a, b){
			return a - b;
		});
		// Step through frames saving only the biggest bottom-up frames
		// thanks to the sort order. This relies on the tree property
		// where children are always smaller than their parents.
		var fudge = 0.0001;	// JavaScript floating point
		for (var k in keys) {
			var x = parseFloat(keys[k]);
			var w = matches[keys[k]];
			if (x >= lastx + lastw - fudge) {
				count += w;
				lastx = x;
				lastw = w;
			}
		}
		// display matched percent
		matchedtxt.classList.remove("hide");
		var pct = 100 * count / maxwidth;
		if (pct != 100) pct = pct.toFixed(1)
		matchedtxt.firstChild.nodeValue = "Matched: " + pct + "%";
	}
]]>
</script>
<rect x="0.0" y="0" width="800.0" height="2134.0" fill="url(#background)"  />
<text id="title" x="400.00" y="24" >bad l2 miss run</text>
<text id="details" x="10.00" y="2117" > </text>
<text id="unzoom" x="10.00" y="24" class="hide">Reset Zoom</text>
<text id="search" x="690.00" y="24" >Search</text>
<text id="ignorecase" x="774.00" y="24" >ic</text>
<text id="matched" x="690.00" y="2117" > </text>
<g id="frames">
<g >
<title>[unknown] (416 samples, 0.65%)</title><rect x="10.0" y="1156" width="5.1" height="15.0" fill="rgb(214,127,4)" rx="2" ry="2" />
<text  x="13.00" y="1166.5" ></text>
</g>
<g >
<title>TxLoad_stm (12,332 samples, 19.36%)</title><rect x="63.4" y="132" width="151.0" height="15.0" fill="rgb(253,150,3)" rx="2" ry="2" />
<text  x="66.43" y="142.5" >TxLoad_stm</text>
</g>
<g >
<title>[unknown] (416 samples, 0.65%)</title><rect x="10.0" y="1412" width="5.1" height="15.0" fill="rgb(221,196,21)" rx="2" ry="2" />
<text  x="13.00" y="1422.5" ></text>
</g>
<g >
<title>TxClearRWSets (9 samples, 0.01%)</title><rect x="63.3" y="132" width="0.1" height="15.0" fill="rgb(214,9,16)" rx="2" ry="2" />
<text  x="66.32" y="142.5" ></text>
</g>
<g >
<title>[unknown] (416 samples, 0.65%)</title><rect x="10.0" y="1204" width="5.1" height="15.0" fill="rgb(238,21,19)" rx="2" ry="2" />
<text  x="13.00" y="1214.5" ></text>
</g>
<g >
<title>[unknown] (416 samples, 0.65%)</title><rect x="10.0" y="1124" width="5.1" height="15.0" fill="rgb(222,175,32)" rx="2" ry="2" />
<text  x="13.00" y="1134.5" ></text>
</g>
<g >
<title>[unknown] (416 samples, 0.65%)</title><rect x="10.0" y="692" width="5.1" height="15.0" fill="rgb(230,88,18)" rx="2" ry="2" />
<text  x="13.00" y="702.5" ></text>
</g>
<g >
<title>[unknown] (416 samples, 0.65%)</title><rect x="10.0" y="804" width="5.1" height="15.0" fill="rgb(225,79,33)" rx="2" ry="2" />
<text  x="13.00" y="814.5" ></text>
</g>
<g >
<title>[unknown] (416 samples, 0.65%)</title><rect x="10.0" y="324" width="5.1" height="15.0" fill="rgb(210,227,54)" rx="2" ry="2" />
<text  x="13.00" y="334.5" ></text>
</g>
<g >
<title>[unknown] (416 samples, 0.65%)</title><rect x="10.0" y="388" width="5.1" height="15.0" fill="rgb(246,77,36)" rx="2" ry="2" />
<text  x="13.00" y="398.5" ></text>
</g>
<g >
<title>[unknown] (416 samples, 0.65%)</title><rect x="10.0" y="244" width="5.1" height="15.0" fill="rgb(234,78,14)" rx="2" ry="2" />
<text  x="13.00" y="254.5" ></text>
</g>
<g >
<title>[unknown] (416 samples, 0.65%)</title><rect x="10.0" y="836" width="5.1" height="15.0" fill="rgb(239,182,6)" rx="2" ry="2" />
<text  x="13.00" y="846.5" ></text>
</g>
<g >
<title>malloc (9 samples, 0.01%)</title><rect x="789.8" y="116" width="0.2" height="15.0" fill="rgb(232,169,41)" rx="2" ry="2" />
<text  x="792.84" y="126.5" ></text>
</g>
<g >
<title>[unknown] (416 samples, 0.65%)</title><rect x="10.0" y="1956" width="5.1" height="15.0" fill="rgb(250,16,37)" rx="2" ry="2" />
<text  x="13.00" y="1966.5" ></text>
</g>
<g >
<title>[unknown] (611 samples, 0.96%)</title><rect x="10.0" y="84" width="7.5" height="15.0" fill="rgb(211,88,32)" rx="2" ry="2" />
<text  x="13.00" y="94.5" ></text>
</g>
<g >
<title>[unknown] (416 samples, 0.65%)</title><rect x="10.0" y="1028" width="5.1" height="15.0" fill="rgb(251,158,32)" rx="2" ry="2" />
<text  x="13.00" y="1038.5" ></text>
</g>
<g >
<title>[unknown] (416 samples, 0.65%)</title><rect x="10.0" y="2004" width="5.1" height="15.0" fill="rgb(225,51,29)" rx="2" ry="2" />
<text  x="13.00" y="2014.5" ></text>
</g>
<g >
<title>[unknown] (416 samples, 0.65%)</title><rect x="10.0" y="644" width="5.1" height="15.0" fill="rgb(243,218,4)" rx="2" ry="2" />
<text  x="13.00" y="654.5" ></text>
</g>
<g >
<title>all (63,710 samples, 100%)</title><rect x="10.0" y="36" width="780.0" height="15.0" fill="rgb(226,152,50)" rx="2" ry="2" />
<text  x="13.00" y="46.5" ></text>
</g>
<g >
<title>thread_start (16 samples, 0.03%)</title><rect x="17.5" y="164" width="0.2" height="15.0" fill="rgb(239,215,11)" rx="2" ry="2" />
<text  x="20.52" y="174.5" ></text>
</g>
<g >
<title>RecordManagerSet&lt;reclaimer_debra&lt;long, pool_interface&lt;long, allocator_interface&lt;long&gt; &gt; &gt;, allocator_new&lt;long&gt;, pool_none&lt;long, allocator_interface&lt;long&gt; &gt;, Node&lt;long, long&gt; &gt;::leaveQuiescentState (29 samples, 0.05%)</title><rect x="63.0" y="132" width="0.3" height="15.0" fill="rgb(239,220,5)" rx="2" ry="2" />
<text  x="65.96" y="142.5" ></text>
</g>
<g >
<title>thread_prefill&lt;record_manager&lt;reclaimer_debra&lt;long, pool_interface&lt;long, allocator_interface&lt;long&gt; &gt; &gt;, allocator_new&lt;long&gt;, pool_none&lt;long, allocator_interface&lt;long&gt; &gt;, Node&lt;long, long&gt;&gt; &gt; (3,110 samples, 4.88%)</title><rect x="23.5" y="100" width="38.1" height="15.0" fill="rgb(232,176,10)" rx="2" ry="2" />
<text  x="26.48" y="110.5" >thr..</text>
</g>
<g >
<title>bst&lt;long, long, std::less&lt;long&gt;, record_manager&lt;reclaimer_debra&lt;long, pool_interface&lt;long, allocator_interface&lt;long&gt; &gt; &gt;, allocator_new&lt;long&gt;, pool_none&lt;long, allocator_interface&lt;long&gt; &gt;, Node&lt;long, long&gt;&gt; &gt;::erase_stm (12 samples, 0.02%)</title><rect x="17.5" y="196" width="0.2" height="15.0" fill="rgb(237,119,4)" rx="2" ry="2" />
<text  x="20.52" y="206.5" ></text>
</g>
<g >
<title>[unknown] (416 samples, 0.65%)</title><rect x="10.0" y="1524" width="5.1" height="15.0" fill="rgb(221,34,27)" rx="2" ry="2" />
<text  x="13.00" y="1534.5" ></text>
</g>
<g >
<title>[unknown] (416 samples, 0.65%)</title><rect x="10.0" y="1892" width="5.1" height="15.0" fill="rgb(248,74,47)" rx="2" ry="2" />
<text  x="13.00" y="1902.5" ></text>
</g>
<g >
<title>[unknown] (416 samples, 0.65%)</title><rect x="10.0" y="100" width="5.1" height="15.0" fill="rgb(244,219,5)" rx="2" ry="2" />
<text  x="13.00" y="110.5" ></text>
</g>
<g >
<title>je_tcache_bin_flush_small (61 samples, 0.10%)</title><rect x="22.7" y="68" width="0.8" height="15.0" fill="rgb(226,67,50)" rx="2" ry="2" />
<text  x="25.73" y="78.5" ></text>
</g>
<g >
<title>[unknown] (416 samples, 0.65%)</title><rect x="10.0" y="116" width="5.1" height="15.0" fill="rgb(233,210,13)" rx="2" ry="2" />
<text  x="13.00" y="126.5" ></text>
</g>
<g >
<title>main (376 samples, 0.59%)</title><rect x="17.5" y="100" width="4.6" height="15.0" fill="rgb(218,125,1)" rx="2" ry="2" />
<text  x="20.48" y="110.5" ></text>
</g>
<g >
<title>[unknown] (416 samples, 0.65%)</title><rect x="10.0" y="900" width="5.1" height="15.0" fill="rgb(222,206,41)" rx="2" ry="2" />
<text  x="13.00" y="910.5" ></text>
</g>
<g >
<title>TxClearRWSets (13 samples, 0.02%)</title><rect x="645.7" y="132" width="0.2" height="15.0" fill="rgb(215,175,3)" rx="2" ry="2" />
<text  x="648.70" y="142.5" ></text>
</g>
<g >
<title>[unknown] (416 samples, 0.65%)</title><rect x="10.0" y="2052" width="5.1" height="15.0" fill="rgb(228,174,50)" rx="2" ry="2" />
<text  x="13.00" y="2062.5" ></text>
</g>
<g >
<title>[unknown] (416 samples, 0.65%)</title><rect x="10.0" y="1076" width="5.1" height="15.0" fill="rgb(251,63,4)" rx="2" ry="2" />
<text  x="13.00" y="1086.5" ></text>
</g>
<g >
<title>[unknown] (416 samples, 0.65%)</title><rect x="10.0" y="948" width="5.1" height="15.0" fill="rgb(221,32,34)" rx="2" ry="2" />
<text  x="13.00" y="958.5" ></text>
</g>
<g >
<title>[unknown] (416 samples, 0.65%)</title><rect x="10.0" y="1140" width="5.1" height="15.0" fill="rgb(232,97,3)" rx="2" ry="2" />
<text  x="13.00" y="1150.5" ></text>
</g>
<g >
<title>[unknown] (416 samples, 0.65%)</title><rect x="10.0" y="1316" width="5.1" height="15.0" fill="rgb(233,121,48)" rx="2" ry="2" />
<text  x="13.00" y="1326.5" ></text>
</g>
<g >
<title>[unknown] (416 samples, 0.65%)</title><rect x="10.0" y="1300" width="5.1" height="15.0" fill="rgb(216,130,1)" rx="2" ry="2" />
<text  x="13.00" y="1310.5" ></text>
</g>
<g >
<title>[unknown] (416 samples, 0.65%)</title><rect x="10.0" y="276" width="5.1" height="15.0" fill="rgb(213,220,41)" rx="2" ry="2" />
<text  x="13.00" y="286.5" ></text>
</g>
<g >
<title>[unknown] (416 samples, 0.65%)</title><rect x="10.0" y="1988" width="5.1" height="15.0" fill="rgb(252,229,6)" rx="2" ry="2" />
<text  x="13.00" y="1998.5" ></text>
</g>
<g >
<title>[unknown] (416 samples, 0.65%)</title><rect x="10.0" y="1604" width="5.1" height="15.0" fill="rgb(209,18,14)" rx="2" ry="2" />
<text  x="13.00" y="1614.5" ></text>
</g>
<g >
<title>[unknown] (416 samples, 0.65%)</title><rect x="10.0" y="2068" width="5.1" height="15.0" fill="rgb(208,186,17)" rx="2" ry="2" />
<text  x="13.00" y="2078.5" ></text>
</g>
<g >
<title>[unknown] (416 samples, 0.65%)</title><rect x="10.0" y="1172" width="5.1" height="15.0" fill="rgb(215,181,41)" rx="2" ry="2" />
<text  x="13.00" y="1182.5" ></text>
</g>
<g >
<title>[unknown] (416 samples, 0.65%)</title><rect x="10.0" y="1556" width="5.1" height="15.0" fill="rgb(225,161,17)" rx="2" ry="2" />
<text  x="13.00" y="1566.5" ></text>
</g>
<g >
<title>__pthread_mutex_unlock (18 samples, 0.03%)</title><rect x="22.4" y="68" width="0.2" height="15.0" fill="rgb(237,161,22)" rx="2" ry="2" />
<text  x="25.39" y="78.5" ></text>
</g>
<g >
<title>[unknown] (416 samples, 0.65%)</title><rect x="10.0" y="964" width="5.1" height="15.0" fill="rgb(205,12,26)" rx="2" ry="2" />
<text  x="13.00" y="974.5" ></text>
</g>
<g >
<title>arena_dalloc_bin_locked_impl.isra.32 (163 samples, 0.26%)</title><rect x="10.0" y="2084" width="2.0" height="15.0" fill="rgb(253,107,22)" rx="2" ry="2" />
<text  x="13.00" y="2094.5" ></text>
</g>
<g >
<title>[unknown] (416 samples, 0.65%)</title><rect x="10.0" y="180" width="5.1" height="15.0" fill="rgb(242,132,15)" rx="2" ry="2" />
<text  x="13.00" y="190.5" ></text>
</g>
<g >
<title>[unknown] (416 samples, 0.65%)</title><rect x="10.0" y="484" width="5.1" height="15.0" fill="rgb(241,10,12)" rx="2" ry="2" />
<text  x="13.00" y="494.5" ></text>
</g>
<g >
<title>[unknown] (416 samples, 0.65%)</title><rect x="10.0" y="1924" width="5.1" height="15.0" fill="rgb(212,99,26)" rx="2" ry="2" />
<text  x="13.00" y="1934.5" ></text>
</g>
<g >
<title>[unknown] (416 samples, 0.65%)</title><rect x="10.0" y="2036" width="5.1" height="15.0" fill="rgb(215,201,32)" rx="2" ry="2" />
<text  x="13.00" y="2046.5" ></text>
</g>
<g >
<title>[unknown] (416 samples, 0.65%)</title><rect x="10.0" y="452" width="5.1" height="15.0" fill="rgb(236,47,50)" rx="2" ry="2" />
<text  x="13.00" y="462.5" ></text>
</g>
<g >
<title>malloc (30 samples, 0.05%)</title><rect x="14.7" y="2084" width="0.4" height="15.0" fill="rgb(228,188,3)" rx="2" ry="2" />
<text  x="17.73" y="2094.5" ></text>
</g>
<g >
<title>[unknown] (416 samples, 0.65%)</title><rect x="10.0" y="1796" width="5.1" height="15.0" fill="rgb(233,102,7)" rx="2" ry="2" />
<text  x="13.00" y="1806.5" ></text>
</g>
<g >
<title>TxClearRWSets (55 samples, 0.09%)</title><rect x="216.6" y="132" width="0.6" height="15.0" fill="rgb(231,142,44)" rx="2" ry="2" />
<text  x="219.58" y="142.5" ></text>
</g>
<g >
<title>[unknown] (416 samples, 0.65%)</title><rect x="10.0" y="468" width="5.1" height="15.0" fill="rgb(206,20,50)" rx="2" ry="2" />
<text  x="13.00" y="478.5" ></text>
</g>
<g >
<title>[unknown] (416 samples, 0.65%)</title><rect x="10.0" y="1764" width="5.1" height="15.0" fill="rgb(253,22,17)" rx="2" ry="2" />
<text  x="13.00" y="1774.5" ></text>
</g>
<g >
<title>bst&lt;long, long, std::less&lt;long&gt;, record_manager&lt;reclaimer_debra&lt;long, pool_interface&lt;long, allocator_interface&lt;long&gt; &gt; &gt;, allocator_new&lt;long&gt;, pool_none&lt;long, allocator_interface&lt;long&gt; &gt;, Node&lt;long, long&gt;&gt; &gt;::insert_stm (1,530 samples, 2.40%)</title><rect x="42.8" y="116" width="18.7" height="15.0" fill="rgb(224,54,46)" rx="2" ry="2" />
<text  x="45.77" y="126.5" ></text>
</g>
<g >
<title>[unknown] (416 samples, 0.65%)</title><rect x="10.0" y="1940" width="5.1" height="15.0" fill="rgb(237,7,17)" rx="2" ry="2" />
<text  x="13.00" y="1950.5" ></text>
</g>
<g >
<title>[unknown] (416 samples, 0.65%)</title><rect x="10.0" y="1844" width="5.1" height="15.0" fill="rgb(252,202,47)" rx="2" ry="2" />
<text  x="13.00" y="1854.5" ></text>
</g>
<g >
<title>[unknown] (416 samples, 0.65%)</title><rect x="10.0" y="1380" width="5.1" height="15.0" fill="rgb(211,17,12)" rx="2" ry="2" />
<text  x="13.00" y="1390.5" ></text>
</g>
<g >
<title>[unknown] (416 samples, 0.65%)</title><rect x="10.0" y="740" width="5.1" height="15.0" fill="rgb(253,94,13)" rx="2" ry="2" />
<text  x="13.00" y="750.5" ></text>
</g>
<g >
<title>[unknown] (416 samples, 0.65%)</title><rect x="10.0" y="1220" width="5.1" height="15.0" fill="rgb(248,151,9)" rx="2" ry="2" />
<text  x="13.00" y="1230.5" ></text>
</g>
<g >
<title>RecordManagerSet&lt;reclaimer_debra&lt;long, pool_interface&lt;long, allocator_interface&lt;long&gt; &gt; &gt;, allocator_new&lt;long&gt;, pool_none&lt;long, allocator_interface&lt;long&gt; &gt;, Node&lt;long, long&gt; &gt;::leaveQuiescentState (123 samples, 0.19%)</title><rect x="215.1" y="132" width="1.5" height="15.0" fill="rgb(225,217,1)" rx="2" ry="2" />
<text  x="218.07" y="142.5" ></text>
</g>
<g >
<title>[unknown] (416 samples, 0.65%)</title><rect x="10.0" y="1620" width="5.1" height="15.0" fill="rgb(250,174,32)" rx="2" ry="2" />
<text  x="13.00" y="1630.5" ></text>
</g>
<g >
<title>bst&lt;long, long, std::less&lt;long&gt;, record_manager&lt;reclaimer_debra&lt;long, pool_interface&lt;long, allocator_interface&lt;long&gt; &gt; &gt;, allocator_new&lt;long&gt;, pool_none&lt;long, allocator_interface&lt;long&gt; &gt;, Node&lt;long, long&gt;&gt; &gt;::insert_stm (80 samples, 0.13%)</title><rect x="21.1" y="180" width="0.9" height="15.0" fill="rgb(235,229,23)" rx="2" ry="2" />
<text  x="24.06" y="190.5" ></text>
</g>
<g >
<title>[unknown] (416 samples, 0.65%)</title><rect x="10.0" y="292" width="5.1" height="15.0" fill="rgb(218,19,27)" rx="2" ry="2" />
<text  x="13.00" y="302.5" ></text>
</g>
<g >
<title>[unknown] (416 samples, 0.65%)</title><rect x="10.0" y="340" width="5.1" height="15.0" fill="rgb(228,19,40)" rx="2" ry="2" />
<text  x="13.00" y="350.5" ></text>
</g>
<g >
<title>[unknown] (416 samples, 0.65%)</title><rect x="10.0" y="1972" width="5.1" height="15.0" fill="rgb(248,123,44)" rx="2" ry="2" />
<text  x="13.00" y="1982.5" ></text>
</g>
<g >
<title>[unknown] (416 samples, 0.65%)</title><rect x="10.0" y="1284" width="5.1" height="15.0" fill="rgb(220,198,43)" rx="2" ry="2" />
<text  x="13.00" y="1294.5" ></text>
</g>
<g >
<title>TxLoad_stm (201 samples, 0.32%)</title><rect x="18.6" y="196" width="2.5" height="15.0" fill="rgb(245,72,29)" rx="2" ry="2" />
<text  x="21.59" y="206.5" ></text>
</g>
<g >
<title>[unknown] (416 samples, 0.65%)</title><rect x="10.0" y="516" width="5.1" height="15.0" fill="rgb(235,101,14)" rx="2" ry="2" />
<text  x="13.00" y="526.5" ></text>
</g>
<g >
<title>TxLoad_stm (69 samples, 0.11%)</title><rect x="17.7" y="196" width="0.9" height="15.0" fill="rgb(236,10,6)" rx="2" ry="2" />
<text  x="20.74" y="206.5" ></text>
</g>
<g >
<title>[unknown] (416 samples, 0.65%)</title><rect x="10.0" y="852" width="5.1" height="15.0" fill="rgb(238,227,49)" rx="2" ry="2" />
<text  x="13.00" y="862.5" ></text>
</g>
<g >
<title>bst&lt;long, long, std::less&lt;long&gt;, record_manager&lt;reclaimer_debra&lt;long, pool_interface&lt;long, allocator_interface&lt;long&gt; &gt; &gt;, allocator_new&lt;long&gt;, pool_none&lt;long, allocator_interface&lt;long&gt; &gt;, Node&lt;long, long&gt;&gt; &gt;::find_stm (35,182 samples, 55.22%)</title><rect x="214.4" y="116" width="430.8" height="15.0" fill="rgb(236,161,48)" rx="2" ry="2" />
<text  x="217.42" y="126.5" >bst&lt;long, long, std::less&lt;long&gt;, record_manager&lt;reclaimer_..</text>
</g>
<g >
<title>[unknown] (416 samples, 0.65%)</title><rect x="10.0" y="196" width="5.1" height="15.0" fill="rgb(244,163,2)" rx="2" ry="2" />
<text  x="13.00" y="206.5" ></text>
</g>
<g >
<title>[unknown] (416 samples, 0.65%)</title><rect x="10.0" y="1588" width="5.1" height="15.0" fill="rgb(217,119,40)" rx="2" ry="2" />
<text  x="13.00" y="1598.5" ></text>
</g>
<g >
<title>[unknown] (416 samples, 0.65%)</title><rect x="10.0" y="1236" width="5.1" height="15.0" fill="rgb(247,15,22)" rx="2" ry="2" />
<text  x="13.00" y="1246.5" ></text>
</g>
<g >
<title>[unknown] (416 samples, 0.65%)</title><rect x="10.0" y="1108" width="5.1" height="15.0" fill="rgb(252,166,28)" rx="2" ry="2" />
<text  x="13.00" y="1118.5" ></text>
</g>
<g >
<title>free (196 samples, 0.31%)</title><rect x="12.3" y="2084" width="2.4" height="15.0" fill="rgb(234,219,42)" rx="2" ry="2" />
<text  x="15.29" y="2094.5" ></text>
</g>
<g >
<title>[unknown] (416 samples, 0.65%)</title><rect x="10.0" y="676" width="5.1" height="15.0" fill="rgb(219,0,29)" rx="2" ry="2" />
<text  x="13.00" y="686.5" ></text>
</g>
<g >
<title>[unknown] (416 samples, 0.65%)</title><rect x="10.0" y="500" width="5.1" height="15.0" fill="rgb(208,40,26)" rx="2" ry="2" />
<text  x="13.00" y="510.5" ></text>
</g>
<g >
<title>[unknown] (416 samples, 0.65%)</title><rect x="10.0" y="1652" width="5.1" height="15.0" fill="rgb(232,2,9)" rx="2" ry="2" />
<text  x="13.00" y="1662.5" ></text>
</g>
<g >
<title>[unknown] (416 samples, 0.65%)</title><rect x="10.0" y="1396" width="5.1" height="15.0" fill="rgb(247,148,3)" rx="2" ry="2" />
<text  x="13.00" y="1406.5" ></text>
</g>
<g >
<title>[unknown] (416 samples, 0.65%)</title><rect x="10.0" y="772" width="5.1" height="15.0" fill="rgb(249,201,23)" rx="2" ry="2" />
<text  x="13.00" y="782.5" ></text>
</g>
<g >
<title>threadWait (62,609 samples, 98.27%)</title><rect x="23.5" y="84" width="766.5" height="15.0" fill="rgb(252,88,4)" rx="2" ry="2" />
<text  x="26.48" y="94.5" >threadWait</text>
</g>
<g >
<title>[unknown] (416 samples, 0.65%)</title><rect x="10.0" y="164" width="5.1" height="15.0" fill="rgb(224,4,0)" rx="2" ry="2" />
<text  x="13.00" y="174.5" ></text>
</g>
<g >
<title>[unknown] (416 samples, 0.65%)</title><rect x="10.0" y="148" width="5.1" height="15.0" fill="rgb(248,208,40)" rx="2" ry="2" />
<text  x="13.00" y="158.5" ></text>
</g>
<g >
<title>[unknown] (416 samples, 0.65%)</title><rect x="10.0" y="308" width="5.1" height="15.0" fill="rgb(224,205,52)" rx="2" ry="2" />
<text  x="13.00" y="318.5" ></text>
</g>
<g >
<title>TxLoad_stm (11,755 samples, 18.45%)</title><rect x="645.9" y="132" width="143.9" height="15.0" fill="rgb(239,0,8)" rx="2" ry="2" />
<text  x="648.89" y="142.5" >TxLoad_stm</text>
</g>
<g >
<title>arena_run_tree_insert (21 samples, 0.03%)</title><rect x="12.0" y="2084" width="0.3" height="15.0" fill="rgb(210,211,36)" rx="2" ry="2" />
<text  x="15.00" y="2094.5" ></text>
</g>
<g >
<title>[unknown] (416 samples, 0.65%)</title><rect x="10.0" y="132" width="5.1" height="15.0" fill="rgb(240,48,5)" rx="2" ry="2" />
<text  x="13.00" y="142.5" ></text>
</g>
<g >
<title>[unknown] (416 samples, 0.65%)</title><rect x="10.0" y="1188" width="5.1" height="15.0" fill="rgb(206,72,39)" rx="2" ry="2" />
<text  x="13.00" y="1198.5" ></text>
</g>
<g >
<title>[unknown] (416 samples, 0.65%)</title><rect x="10.0" y="884" width="5.1" height="15.0" fill="rgb(237,167,5)" rx="2" ry="2" />
<text  x="13.00" y="894.5" ></text>
</g>
<g >
<title>[unknown] (416 samples, 0.65%)</title><rect x="10.0" y="1044" width="5.1" height="15.0" fill="rgb(240,1,2)" rx="2" ry="2" />
<text  x="13.00" y="1054.5" ></text>
</g>
<g >
<title>[unknown] (416 samples, 0.65%)</title><rect x="10.0" y="1812" width="5.1" height="15.0" fill="rgb(252,195,52)" rx="2" ry="2" />
<text  x="13.00" y="1822.5" ></text>
</g>
<g >
<title>[unknown] (416 samples, 0.65%)</title><rect x="10.0" y="2020" width="5.1" height="15.0" fill="rgb(254,219,8)" rx="2" ry="2" />
<text  x="13.00" y="2030.5" ></text>
</g>
<g >
<title>[unknown] (416 samples, 0.65%)</title><rect x="10.0" y="1364" width="5.1" height="15.0" fill="rgb(251,132,40)" rx="2" ry="2" />
<text  x="13.00" y="1374.5" ></text>
</g>
<g >
<title>[unknown] (29 samples, 0.05%)</title><rect x="62.3" y="132" width="0.3" height="15.0" fill="rgb(210,88,51)" rx="2" ry="2" />
<text  x="65.25" y="142.5" ></text>
</g>
<g >
<title>bst&lt;long, long, std::less&lt;long&gt;, record_manager&lt;reclaimer_debra&lt;long, pool_interface&lt;long, allocator_interface&lt;long&gt; &gt; &gt;, allocator_new&lt;long&gt;, pool_none&lt;long, allocator_interface&lt;long&gt; &gt;, Node&lt;long, long&gt;&gt; &gt;::insert_stm (11,815 samples, 18.54%)</title><rect x="645.2" y="116" width="144.6" height="15.0" fill="rgb(241,99,54)" rx="2" ry="2" />
<text  x="648.15" y="126.5" >bst&lt;long, long, st..</text>
</g>
<g >
<title>[unknown] (416 samples, 0.65%)</title><rect x="10.0" y="1476" width="5.1" height="15.0" fill="rgb(248,148,33)" rx="2" ry="2" />
<text  x="13.00" y="1486.5" ></text>
</g>
<g >
<title>[unknown] (416 samples, 0.65%)</title><rect x="10.0" y="1732" width="5.1" height="15.0" fill="rgb(205,205,15)" rx="2" ry="2" />
<text  x="13.00" y="1742.5" ></text>
</g>
<g >
<title>[unknown] (416 samples, 0.65%)</title><rect x="10.0" y="1508" width="5.1" height="15.0" fill="rgb(249,96,22)" rx="2" ry="2" />
<text  x="13.00" y="1518.5" ></text>
</g>
<g >
<title>[unknown] (416 samples, 0.65%)</title><rect x="10.0" y="1348" width="5.1" height="15.0" fill="rgb(214,39,39)" rx="2" ry="2" />
<text  x="13.00" y="1358.5" ></text>
</g>
<g >
<title>[unknown] (416 samples, 0.65%)</title><rect x="10.0" y="1700" width="5.1" height="15.0" fill="rgb(248,109,14)" rx="2" ry="2" />
<text  x="13.00" y="1710.5" ></text>
</g>
<g >
<title>[unknown] (416 samples, 0.65%)</title><rect x="10.0" y="1908" width="5.1" height="15.0" fill="rgb(226,227,24)" rx="2" ry="2" />
<text  x="13.00" y="1918.5" ></text>
</g>
<g >
<title>[unknown] (416 samples, 0.65%)</title><rect x="10.0" y="1332" width="5.1" height="15.0" fill="rgb(222,216,39)" rx="2" ry="2" />
<text  x="13.00" y="1342.5" ></text>
</g>
<g >
<title>[unknown] (416 samples, 0.65%)</title><rect x="10.0" y="260" width="5.1" height="15.0" fill="rgb(213,158,2)" rx="2" ry="2" />
<text  x="13.00" y="270.5" ></text>
</g>
<g >
<title>TxLoad_stm (34,947 samples, 54.85%)</title><rect x="217.2" y="132" width="427.9" height="15.0" fill="rgb(248,5,34)" rx="2" ry="2" />
<text  x="220.25" y="142.5" >TxLoad_stm</text>
</g>
<g >
<title>prefill&lt;record_manager&lt;reclaimer_debra&lt;long, pool_interface&lt;long, allocator_interface&lt;long&gt; &gt; &gt;, allocator_new&lt;long&gt;, pool_none&lt;long, allocator_interface&lt;long&gt; &gt;, Node&lt;long, long&gt;&gt; &gt; (19 samples, 0.03%)</title><rect x="17.5" y="148" width="0.2" height="15.0" fill="rgb(240,190,30)" rx="2" ry="2" />
<text  x="20.48" y="158.5" ></text>
</g>
<g >
<title>[unknown] (416 samples, 0.65%)</title><rect x="10.0" y="1876" width="5.1" height="15.0" fill="rgb(231,115,16)" rx="2" ry="2" />
<text  x="13.00" y="1886.5" ></text>
</g>
<g >
<title>start_thread (62,609 samples, 98.27%)</title><rect x="23.5" y="68" width="766.5" height="15.0" fill="rgb(252,108,7)" rx="2" ry="2" />
<text  x="26.48" y="78.5" >start_thread</text>
</g>
<g >
<title>bst&lt;long, long, std::less&lt;long&gt;, record_manager&lt;reclaimer_debra&lt;long, pool_interface&lt;long, allocator_interface&lt;long&gt; &gt; &gt;, allocator_new&lt;long&gt;, pool_none&lt;long, allocator_interface&lt;long&gt; &gt;, Node&lt;long, long&gt;&gt; &gt;::erase_stm (70 samples, 0.11%)</title><rect x="17.7" y="180" width="0.9" height="15.0" fill="rgb(239,73,15)" rx="2" ry="2" />
<text  x="20.73" y="190.5" ></text>
</g>
<g >
<title>[unknown] (416 samples, 0.65%)</title><rect x="10.0" y="660" width="5.1" height="15.0" fill="rgb(222,133,19)" rx="2" ry="2" />
<text  x="13.00" y="670.5" ></text>
</g>
<g >
<title>RecordManagerSet&lt;reclaimer_debra&lt;long, pool_interface&lt;long, allocator_interface&lt;long&gt; &gt; &gt;, allocator_new&lt;long&gt;, pool_none&lt;long, allocator_interface&lt;long&gt; &gt;, Node&lt;long, long&gt; &gt;::leaveQuiescentState (29 samples, 0.05%)</title><rect x="645.3" y="132" width="0.4" height="15.0" fill="rgb(207,118,40)" rx="2" ry="2" />
<text  x="648.35" y="142.5" ></text>
</g>
<g >
<title>[unknown] (416 samples, 0.65%)</title><rect x="10.0" y="420" width="5.1" height="15.0" fill="rgb(214,132,1)" rx="2" ry="2" />
<text  x="13.00" y="430.5" ></text>
</g>
<g >
<title>[unknown] (416 samples, 0.65%)</title><rect x="10.0" y="1092" width="5.1" height="15.0" fill="rgb(210,144,33)" rx="2" ry="2" />
<text  x="13.00" y="1102.5" ></text>
</g>
<g >
<title>__pthread_mutex_lock (79 samples, 0.12%)</title><rect x="15.2" y="100" width="0.9" height="15.0" fill="rgb(238,129,28)" rx="2" ry="2" />
<text  x="18.15" y="110.5" ></text>
</g>
<g >
<title>[unknown] (416 samples, 0.65%)</title><rect x="10.0" y="1012" width="5.1" height="15.0" fill="rgb(218,35,21)" rx="2" ry="2" />
<text  x="13.00" y="1022.5" ></text>
</g>
<g >
<title>[unknown] (416 samples, 0.65%)</title><rect x="10.0" y="372" width="5.1" height="15.0" fill="rgb(235,170,1)" rx="2" ry="2" />
<text  x="13.00" y="382.5" ></text>
</g>
<g >
<title>[unknown] (416 samples, 0.65%)</title><rect x="10.0" y="596" width="5.1" height="15.0" fill="rgb(254,56,15)" rx="2" ry="2" />
<text  x="13.00" y="606.5" ></text>
</g>
<g >
<title>[unknown] (416 samples, 0.65%)</title><rect x="10.0" y="1460" width="5.1" height="15.0" fill="rgb(232,90,14)" rx="2" ry="2" />
<text  x="13.00" y="1470.5" ></text>
</g>
<g >
<title>[unknown] (416 samples, 0.65%)</title><rect x="10.0" y="756" width="5.1" height="15.0" fill="rgb(223,182,51)" rx="2" ry="2" />
<text  x="13.00" y="766.5" ></text>
</g>
<g >
<title>[unknown] (416 samples, 0.65%)</title><rect x="10.0" y="1428" width="5.1" height="15.0" fill="rgb(238,96,46)" rx="2" ry="2" />
<text  x="13.00" y="1438.5" ></text>
</g>
<g >
<title>[unknown] (416 samples, 0.65%)</title><rect x="10.0" y="356" width="5.1" height="15.0" fill="rgb(210,63,42)" rx="2" ry="2" />
<text  x="13.00" y="366.5" ></text>
</g>
<g >
<title>[unknown] (416 samples, 0.65%)</title><rect x="10.0" y="436" width="5.1" height="15.0" fill="rgb(243,160,36)" rx="2" ry="2" />
<text  x="13.00" y="446.5" ></text>
</g>
<g >
<title>thread_timed&lt;record_manager&lt;reclaimer_debra&lt;long, pool_interface&lt;long, allocator_interface&lt;long&gt; &gt; &gt;, allocator_new&lt;long&gt;, pool_none&lt;long, allocator_interface&lt;long&gt; &gt;, Node&lt;long, long&gt;&gt; &gt; (59,499 samples, 93.39%)</title><rect x="61.6" y="100" width="728.4" height="15.0" fill="rgb(227,11,32)" rx="2" ry="2" />
<text  x="64.56" y="110.5" >thread_timed&lt;record_manager&lt;reclaimer_debra&lt;long, pool_interface&lt;long, allocator_interface&lt;long&gt; &gt; &gt;..</text>
</g>
<g >
<title>[unknown] (416 samples, 0.65%)</title><rect x="10.0" y="532" width="5.1" height="15.0" fill="rgb(211,1,32)" rx="2" ry="2" />
<text  x="13.00" y="542.5" ></text>
</g>
<g >
<title>TxLoad_stm (49 samples, 0.08%)</title><rect x="42.2" y="132" width="0.5" height="15.0" fill="rgb(248,132,9)" rx="2" ry="2" />
<text  x="45.15" y="142.5" ></text>
</g>
<g >
<title>[unknown] (416 samples, 0.65%)</title><rect x="10.0" y="1636" width="5.1" height="15.0" fill="rgb(231,107,51)" rx="2" ry="2" />
<text  x="13.00" y="1646.5" ></text>
</g>
<g >
<title>[unknown] (416 samples, 0.65%)</title><rect x="10.0" y="1684" width="5.1" height="15.0" fill="rgb(214,64,8)" rx="2" ry="2" />
<text  x="13.00" y="1694.5" ></text>
</g>
<g >
<title>[unknown] (416 samples, 0.65%)</title><rect x="10.0" y="1780" width="5.1" height="15.0" fill="rgb(235,5,48)" rx="2" ry="2" />
<text  x="13.00" y="1790.5" ></text>
</g>
<g >
<title>thread_prefill&lt;record_manager&lt;reclaimer_debra&lt;long, pool_interface&lt;long, allocator_interface&lt;long&gt; &gt; &gt;, allocator_new&lt;long&gt;, pool_none&lt;long, allocator_interface&lt;long&gt; &gt;, Node&lt;long, long&gt;&gt; &gt; (16 samples, 0.03%)</title><rect x="17.5" y="180" width="0.2" height="15.0" fill="rgb(216,72,20)" rx="2" ry="2" />
<text  x="20.52" y="190.5" ></text>
</g>
<g >
<title>[unknown] (416 samples, 0.65%)</title><rect x="10.0" y="1252" width="5.1" height="15.0" fill="rgb(231,130,47)" rx="2" ry="2" />
<text  x="13.00" y="1262.5" ></text>
</g>
<g >
<title>[unknown] (416 samples, 0.65%)</title><rect x="10.0" y="1668" width="5.1" height="15.0" fill="rgb(229,9,23)" rx="2" ry="2" />
<text  x="13.00" y="1678.5" ></text>
</g>
<g >
<title>[unknown] (416 samples, 0.65%)</title><rect x="10.0" y="820" width="5.1" height="15.0" fill="rgb(237,14,21)" rx="2" ry="2" />
<text  x="13.00" y="830.5" ></text>
</g>
<g >
<title>[unknown] (416 samples, 0.65%)</title><rect x="10.0" y="932" width="5.1" height="15.0" fill="rgb(207,169,14)" rx="2" ry="2" />
<text  x="13.00" y="942.5" ></text>
</g>
<g >
<title>TxLoad_stm (80 samples, 0.13%)</title><rect x="21.1" y="196" width="0.9" height="15.0" fill="rgb(222,121,11)" rx="2" ry="2" />
<text  x="24.06" y="206.5" ></text>
</g>
<g >
<title>trial&lt;record_manager&lt;reclaimer_debra&lt;long, pool_interface&lt;long, allocator_interface&lt;long&gt; &gt; &gt;, allocator_new&lt;long&gt;, pool_none&lt;long, allocator_interface&lt;long&gt; &gt;, Node&lt;long, long&gt;&gt; &gt; (372 samples, 0.58%)</title><rect x="17.5" y="132" width="4.5" height="15.0" fill="rgb(236,156,48)" rx="2" ry="2" />
<text  x="20.48" y="142.5" ></text>
</g>
<g >
<title>[unknown] (416 samples, 0.65%)</title><rect x="10.0" y="1828" width="5.1" height="15.0" fill="rgb(227,204,14)" rx="2" ry="2" />
<text  x="13.00" y="1838.5" ></text>
</g>
<g >
<title>[unknown] (416 samples, 0.65%)</title><rect x="10.0" y="980" width="5.1" height="15.0" fill="rgb(205,14,45)" rx="2" ry="2" />
<text  x="13.00" y="990.5" ></text>
</g>
<g >
<title>[unknown] (416 samples, 0.65%)</title><rect x="10.0" y="868" width="5.1" height="15.0" fill="rgb(239,182,10)" rx="2" ry="2" />
<text  x="13.00" y="878.5" ></text>
</g>
<g >
<title>[unknown] (416 samples, 0.65%)</title><rect x="10.0" y="1572" width="5.1" height="15.0" fill="rgb(230,93,7)" rx="2" ry="2" />
<text  x="13.00" y="1582.5" ></text>
</g>
<g >
<title>__GI___sigprocmask (29 samples, 0.05%)</title><rect x="62.3" y="116" width="0.3" height="15.0" fill="rgb(237,107,4)" rx="2" ry="2" />
<text  x="65.25" y="126.5" ></text>
</g>
<g >
<title>[unknown] (416 samples, 0.65%)</title><rect x="10.0" y="404" width="5.1" height="15.0" fill="rgb(251,200,42)" rx="2" ry="2" />
<text  x="13.00" y="414.5" ></text>
</g>
<g >
<title>[unknown] (416 samples, 0.65%)</title><rect x="10.0" y="548" width="5.1" height="15.0" fill="rgb(206,122,37)" rx="2" ry="2" />
<text  x="13.00" y="558.5" ></text>
</g>
<g >
<title>__libc_start_main (376 samples, 0.59%)</title><rect x="17.5" y="84" width="4.6" height="15.0" fill="rgb(253,55,25)" rx="2" ry="2" />
<text  x="20.48" y="94.5" ></text>
</g>
<g >
<title>[unknown] (416 samples, 0.65%)</title><rect x="10.0" y="708" width="5.1" height="15.0" fill="rgb(238,31,31)" rx="2" ry="2" />
<text  x="13.00" y="718.5" ></text>
</g>
<g >
<title>[unknown] (416 samples, 0.65%)</title><rect x="10.0" y="580" width="5.1" height="15.0" fill="rgb(218,97,31)" rx="2" ry="2" />
<text  x="13.00" y="590.5" ></text>
</g>
<g >
<title>[unknown] (416 samples, 0.65%)</title><rect x="10.0" y="1444" width="5.1" height="15.0" fill="rgb(245,112,34)" rx="2" ry="2" />
<text  x="13.00" y="1454.5" ></text>
</g>
<g >
<title>thread_start (353 samples, 0.55%)</title><rect x="17.7" y="148" width="4.3" height="15.0" fill="rgb(222,135,1)" rx="2" ry="2" />
<text  x="20.71" y="158.5" ></text>
</g>
<g >
<title>[unknown] (416 samples, 0.65%)</title><rect x="10.0" y="612" width="5.1" height="15.0" fill="rgb(218,180,6)" rx="2" ry="2" />
<text  x="13.00" y="622.5" ></text>
</g>
<g >
<title>[unknown] (416 samples, 0.65%)</title><rect x="10.0" y="628" width="5.1" height="15.0" fill="rgb(212,153,53)" rx="2" ry="2" />
<text  x="13.00" y="638.5" ></text>
</g>
<g >
<title>[unknown] (416 samples, 0.65%)</title><rect x="10.0" y="1492" width="5.1" height="15.0" fill="rgb(228,173,7)" rx="2" ry="2" />
<text  x="13.00" y="1502.5" ></text>
</g>
<g >
<title>[unknown] (416 samples, 0.65%)</title><rect x="10.0" y="1540" width="5.1" height="15.0" fill="rgb(235,96,10)" rx="2" ry="2" />
<text  x="13.00" y="1550.5" ></text>
</g>
<g >
<title>bst&lt;long, long, std::less&lt;long&gt;, record_manager&lt;reclaimer_debra&lt;long, pool_interface&lt;long, allocator_interface&lt;long&gt; &gt; &gt;, allocator_new&lt;long&gt;, pool_none&lt;long, allocator_interface&lt;long&gt; &gt;, Node&lt;long, long&gt;&gt; &gt;::erase_stm (12,399 samples, 19.46%)</title><rect x="62.6" y="116" width="151.8" height="15.0" fill="rgb(220,227,45)" rx="2" ry="2" />
<text  x="65.62" y="126.5" >bst&lt;long, long, std..</text>
</g>
<g >
<title>[unknown] (416 samples, 0.65%)</title><rect x="10.0" y="788" width="5.1" height="15.0" fill="rgb(254,24,44)" rx="2" ry="2" />
<text  x="13.00" y="798.5" ></text>
</g>
<g >
<title>[unknown] (416 samples, 0.65%)</title><rect x="10.0" y="1060" width="5.1" height="15.0" fill="rgb(224,138,21)" rx="2" ry="2" />
<text  x="13.00" y="1070.5" ></text>
</g>
<g >
<title>[unknown] (416 samples, 0.65%)</title><rect x="10.0" y="916" width="5.1" height="15.0" fill="rgb(220,135,45)" rx="2" ry="2" />
<text  x="13.00" y="926.5" ></text>
</g>
<g >
<title>[unknown] (416 samples, 0.65%)</title><rect x="10.0" y="212" width="5.1" height="15.0" fill="rgb(222,134,0)" rx="2" ry="2" />
<text  x="13.00" y="222.5" ></text>
</g>
<g >
<title>TxLoad_stm (76 samples, 0.12%)</title><rect x="60.6" y="132" width="0.9" height="15.0" fill="rgb(210,146,20)" rx="2" ry="2" />
<text  x="63.58" y="142.5" ></text>
</g>
<g >
<title>jax.dsbench_hyt (63,710 samples, 100.00%)</title><rect x="10.0" y="52" width="780.0" height="15.0" fill="rgb(205,134,33)" rx="2" ry="2" />
<text  x="13.00" y="62.5" >jax.dsbench_hyt</text>
</g>
<g >
<title>je_tcache_bin_flush_small (109 samples, 0.17%)</title><rect x="16.1" y="100" width="1.4" height="15.0" fill="rgb(251,81,4)" rx="2" ry="2" />
<text  x="19.15" y="110.5" ></text>
</g>
<g >
<title>performExperiment (372 samples, 0.58%)</title><rect x="17.5" y="116" width="4.5" height="15.0" fill="rgb(248,140,36)" rx="2" ry="2" />
<text  x="20.48" y="126.5" ></text>
</g>
<g >
<title>[unknown] (416 samples, 0.65%)</title><rect x="10.0" y="724" width="5.1" height="15.0" fill="rgb(251,180,8)" rx="2" ry="2" />
<text  x="13.00" y="734.5" ></text>
</g>
<g >
<title>[unknown] (1,007 samples, 1.58%)</title><rect x="10.0" y="68" width="12.3" height="15.0" fill="rgb(254,154,26)" rx="2" ry="2" />
<text  x="13.00" y="78.5" ></text>
</g>
<g >
<title>[unknown] (416 samples, 0.65%)</title><rect x="10.0" y="1748" width="5.1" height="15.0" fill="rgb(248,75,50)" rx="2" ry="2" />
<text  x="13.00" y="1758.5" ></text>
</g>
<g >
<title>[unknown] (416 samples, 0.65%)</title><rect x="10.0" y="564" width="5.1" height="15.0" fill="rgb(219,111,48)" rx="2" ry="2" />
<text  x="13.00" y="574.5" ></text>
</g>
<g >
<title>[unknown] (416 samples, 0.65%)</title><rect x="10.0" y="228" width="5.1" height="15.0" fill="rgb(212,206,38)" rx="2" ry="2" />
<text  x="13.00" y="238.5" ></text>
</g>
<g >
<title>thread_timed&lt;record_manager&lt;reclaimer_debra&lt;long, pool_interface&lt;long, allocator_interface&lt;long&gt; &gt; &gt;, allocator_new&lt;long&gt;, pool_none&lt;long, allocator_interface&lt;long&gt; &gt;, Node&lt;long, long&gt;&gt; &gt; (353 samples, 0.55%)</title><rect x="17.7" y="164" width="4.3" height="15.0" fill="rgb(218,169,50)" rx="2" ry="2" />
<text  x="20.71" y="174.5" ></text>
</g>
<g >
<title>[unknown] (416 samples, 0.65%)</title><rect x="10.0" y="996" width="5.1" height="15.0" fill="rgb(243,140,23)" rx="2" ry="2" />
<text  x="13.00" y="1006.5" ></text>
</g>
<g >
<title>[unknown] (416 samples, 0.65%)</title><rect x="10.0" y="1860" width="5.1" height="15.0" fill="rgb(216,156,40)" rx="2" ry="2" />
<text  x="13.00" y="1870.5" ></text>
</g>
<g >
<title>[unknown] (416 samples, 0.65%)</title><rect x="10.0" y="1716" width="5.1" height="15.0" fill="rgb(205,6,21)" rx="2" ry="2" />
<text  x="13.00" y="1726.5" ></text>
</g>
<g >
<title>[unknown] (416 samples, 0.65%)</title><rect x="10.0" y="1268" width="5.1" height="15.0" fill="rgb(217,19,14)" rx="2" ry="2" />
<text  x="13.00" y="1278.5" ></text>
</g>
<g >
<title>bst&lt;long, long, std::less&lt;long&gt;, record_manager&lt;reclaimer_debra&lt;long, pool_interface&lt;long, allocator_interface&lt;long&gt; &gt; &gt;, allocator_new&lt;long&gt;, pool_none&lt;long, allocator_interface&lt;long&gt; &gt;, Node&lt;long, long&gt;&gt; &gt;::erase_stm (1,567 samples, 2.46%)</title><rect x="23.6" y="116" width="19.2" height="15.0" fill="rgb(254,34,44)" rx="2" ry="2" />
<text  x="26.59" y="126.5" ></text>
</g>
<g >
<title>bst&lt;long, long, std::less&lt;long&gt;, record_manager&lt;reclaimer_debra&lt;long, pool_interface&lt;long, allocator_interface&lt;long&gt; &gt; &gt;, allocator_new&lt;long&gt;, pool_none&lt;long, allocator_interface&lt;long&gt; &gt;, Node&lt;long, long&gt;&gt; &gt;::find_stm (202 samples, 0.32%)</title><rect x="18.6" y="180" width="2.5" height="15.0" fill="rgb(216,220,23)" rx="2" ry="2" />
<text  x="21.58" y="190.5" ></text>
</g>
</g>
</svg>
